<svg width="88" height="21" viewBox="0 0 88 21" fill="none" xmlns="http://www.w3.org/2000/svg">
<path d="M5.90915 20.6385V4.42977H0V1.86178H14.6348V4.42977H8.72566V20.6385H5.90915Z" fill="white"/>
<path d="M16.7131 20.6385V0.895329H19.5296V9.2068C20.4408 7.7157 21.7939 6.55596 23.8925 6.55596C26.5985 6.55596 28.6142 8.43364 28.6142 11.8576V20.6385H25.7977V12.0785C25.7977 10.0352 24.6932 8.95828 22.8432 8.95828C20.9379 8.95828 19.5296 10.0904 19.5296 12.7689V20.6385H16.7131Z" fill="white"/>
<path d="M31.5173 20.6385V6.83209H34.2785V9.2068C35.1345 7.30151 36.4876 6.69403 38.172 6.69403H38.7242V9.48293H36.9846C35.1898 9.48293 34.3338 10.3113 34.3338 12.2994V20.6385H31.5173Z" fill="white"/>
<path d="M46.7393 20.9146C42.6526 20.9146 39.8637 18.0981 39.8637 13.7353C39.8637 9.37247 42.6526 6.55596 46.6288 6.55596C50.4394 6.55596 53.035 9.12396 53.035 13.7353V14.5361H42.763C42.7906 17.1041 44.3922 18.6228 46.7393 18.6228C48.617 18.6228 49.6939 17.6287 50.0252 16.4414H52.8141C52.2618 19.0646 50.0528 20.9146 46.7393 20.9146ZM42.763 12.4651H50.1633C50.1633 10.2285 48.6998 8.84783 46.5736 8.84783C44.475 8.84783 42.9287 10.1732 42.763 12.4651Z" fill="white"/>
<path d="M59.249 20.9146C56.5153 20.9146 54.9966 19.3131 54.9966 17.2421C54.9966 14.895 56.9019 13.6249 59.0557 13.0726L63.6118 11.9405V11.6367C63.6118 9.56576 62.5349 8.82022 60.8505 8.82022C58.9729 8.82022 57.9512 9.70383 57.8959 11.5539H55.0518C55.2451 8.26796 57.7027 6.55596 60.961 6.55596C64.4954 6.55596 66.4283 8.62693 66.4283 11.9405V20.6385H63.6394V18.319C62.673 19.9758 61.3199 20.9146 59.249 20.9146ZM57.8131 16.9108C57.8131 18.2086 58.7519 18.8161 60.1326 18.8161C62.1207 18.8161 63.6118 17.5459 63.6118 15.3645V13.9286L59.9945 14.7846C58.531 15.1436 57.8131 15.8063 57.8131 16.9108Z" fill="white"/>
<path d="M74.6524 20.9146C71.3113 20.9146 68.7709 18.3743 68.7709 13.7353C68.7709 9.09635 71.3113 6.55596 74.6524 6.55596C76.6958 6.55596 78.1869 7.52241 79.1809 9.23441V0.895329H81.9974V20.6385H79.2362V18.1257C78.2421 19.9206 76.7234 20.9146 74.6524 20.9146ZM71.6426 14.0943C71.6426 17.0765 73.1337 18.6504 75.4532 18.6504C77.8279 18.6504 79.1809 16.966 79.1809 14.3704V13.0726C79.1809 10.5322 77.8279 8.87544 75.4532 8.87544C73.1337 8.87544 71.6426 10.4218 71.6426 13.3487V14.0943Z" fill="white"/>
<path d="M84.6588 20.6385V17.4354H88V20.6385H84.6588Z" fill="white"/>
</svg>
